<svg xmlns="http://www.w3.org/2000/svg" xmlns:xlink="http://www.w3.org/1999/xlink" viewBox="0 0 667.33 666"><defs><linearGradient id="Unbenannter_Verlauf_121" x1="413.72" y1="251.04" x2="427.92" y2="251.04" gradientTransform="translate(-192.32 -41.84)" gradientUnits="userSpaceOnUse"><stop offset="0" stop-color="#0274bb"/><stop offset="0.99" stop-color="#0073bb"/></linearGradient><linearGradient id="Unbenannter_Verlauf_112" x1="284.98" y1="333" x2="368.25" y2="333" gradientUnits="userSpaceOnUse"><stop offset="0" stop-color="#0075be"/><stop offset="0.99" stop-color="#005b97"/></linearGradient><linearGradient id="Unbenannter_Verlauf_112-2" x1="284.98" y1="500.1" x2="368.25" y2="500.1" xlink:href="#Unbenannter_Verlauf_112"/><linearGradient id="Unbenannter_Verlauf_112-3" x1="221.4" y1="359.55" x2="284.98" y2="359.55" xlink:href="#Unbenannter_Verlauf_112"/><linearGradient id="Unbenannter_Verlauf_112-4" x1="221.4" y1="441.97" x2="284.98" y2="441.97" xlink:href="#Unbenannter_Verlauf_112"/><linearGradient id="Unbenannter_Verlauf_112-5" x1="0.5" x2="666.5" xlink:href="#Unbenannter_Verlauf_112"/><linearGradient id="Unbenannter_Verlauf_112-6" x1="284.98" y1="249.34" x2="368.25" y2="249.34" xlink:href="#Unbenannter_Verlauf_112"/><linearGradient id="Unbenannter_Verlauf_112-7" x1="284.98" y1="416.24" x2="368.25" y2="416.24" xlink:href="#Unbenannter_Verlauf_112"/><linearGradient id="Unbenannter_Verlauf_112-8" x1="221.4" y1="277.13" x2="284.98" y2="277.13" xlink:href="#Unbenannter_Verlauf_112"/><linearGradient id="Unbenannter_Verlauf_112-9" x1="465.89" y1="333.83" x2="512.23" y2="333.83" xlink:href="#Unbenannter_Verlauf_112"/><linearGradient id="Unbenannter_Verlauf_112-10" x1="186.86" y1="168.38" x2="270.14" y2="168.38" xlink:href="#Unbenannter_Verlauf_112"/></defs><g id="Layer_2" data-name="Layer 2"><g id="Ebene_1" data-name="Ebene 1"><polyline points="221.4 224.93 221.4 193.47 235.59 193.47 235.59 224.93" style="fill:url(#Unbenannter_Verlauf_121)"/><rect x="284.98" y="307.27" width="83.27" height="51.47" rx="0.61" style="fill:url(#Unbenannter_Verlauf_112)"/><rect x="284.98" y="474.37" width="83.27" height="51.47" rx="0.61" style="fill:url(#Unbenannter_Verlauf_112-2)"/><path d="M285,421.41H230.65c-6.88,0-9.22-2.3-9.23-9q0-57.33,0-114.66h14.19c0,8,.12,16-.09,24-.08,2.89.93,3.52,3.72,3.49,15.25-.12,30.5-.06,45.76-.06v13.77c-15.18,0-30.36.08-45.53-.07-3,0-4,.65-4,3.74q.22,30.72,0,61.45c0,3.09.93,3.77,4,3.74,15.17-.15,30.35-.07,45.53-.08Z" style="fill:url(#Unbenannter_Verlauf_112-3)"/><path d="M285,503.83q-27.17,0-54.33,0c-6.88,0-9.22-2.29-9.23-9q0-57.33,0-114.66h14.19c0,8,.12,16-.09,23.95-.08,2.9.93,3.52,3.72,3.5,15.25-.13,30.5-.07,45.76-.07v13.78c-15.18,0-30.36.07-45.53-.08-3,0-4,.65-4,3.74q.22,30.72,0,61.45c0,3.09.93,3.77,4,3.74,15.17-.15,30.35-.07,45.53-.07Z" style="fill:url(#Unbenannter_Verlauf_112-4)"/><path d="M666.5,333.37c-4,2.84-6.45,4.13-8.34,6Q587,410.24,516.08,481.26c-17.09,17.19-32.58,36-50.21,52.6C416.7,580.08,358,605.3,290.45,608.39c-81,3.72-151-23.06-208.62-79.69C35.69,483.38,8.71,427.91,2.16,363.4c-8.9-87.69,18-163.56,80.13-225.86C195.86,23.7,383.85,32.22,487.63,155c5.85,6.92,12,13.58,18.42,20q75.91,76,152,151.73C660,328.56,662.27,330,666.5,333.37ZM318,333.17l93.88-93.58c-33.31-50.82-103.58-85-177.53-65.77-72.76,18.93-125.12,87-123.67,160.6,1.53,77.36,53.27,142.38,128,160.29,73.22,17.56,142.57-18.58,173.72-67.64Zm123.19-.58c0,26.84,22.36,49.18,49.14,49.06,26.58-.12,48.62-22.12,48.77-48.68a49,49,0,1,0-97.91-.38Z" style="stroke:#fff;stroke-miterlimit:10;fill:url(#Unbenannter_Verlauf_112-5)"/><rect x="284.98" y="223.6" width="83.27" height="51.47" rx="0.61" style="fill:url(#Unbenannter_Verlauf_112-6)"/><rect x="284.98" y="390.51" width="83.27" height="51.47" rx="0.61" style="fill:url(#Unbenannter_Verlauf_112-7)"/><path d="M285,339H230.65c-6.88,0-9.22-2.3-9.23-9.05q0-57.33,0-114.66h14.19c0,8,.12,16-.09,23.95-.08,2.9.93,3.52,3.72,3.5,15.25-.12,30.5-.06,45.76-.07v13.78c-15.18,0-30.36.08-45.53-.08-3,0-4,.65-4,3.74q.22,30.74,0,61.46c0,3.09.93,3.77,4,3.74,15.17-.15,30.35-.08,45.53-.08Z" style="fill:url(#Unbenannter_Verlauf_112-8)"/><path d="M512.23,333.52a22.94,22.94,0,0,1-23,23.44,23.19,23.19,0,0,1-23.38-23.14,23.44,23.44,0,0,1,22.76-23.12A22.93,22.93,0,0,1,512.23,333.52Z" style="stroke:#fff;stroke-miterlimit:10;fill:url(#Unbenannter_Verlauf_112-9)"/><rect x="186.86" y="142.65" width="83.27" height="51.47" rx="0.61" style="stroke:#fff;stroke-miterlimit:10;fill:url(#Unbenannter_Verlauf_112-10)"/><rect x="0.5" width="666" height="666" style="fill:none"/></g></g></svg>